<?xml version="1.0" encoding="UTF-8"?>
<!DOCTYPE svg PUBLIC "-//W3C//DTD SVG 1.1//EN" "http://www.w3.org/Graphics/SVG/1.1/DTD/svg11.dtd">
<svg xmlns="http://www.w3.org/2000/svg" version="1.1" width="265px" height="59px" style="shape-rendering:geometricPrecision; text-rendering:geometricPrecision; image-rendering:optimizeQuality; fill-rule:evenodd; clip-rule:evenodd" xmlns:xlink="http://www.w3.org/1999/xlink">
<g><path style="opacity:1" fill="#fcfbfa" d="M -0.5,-0.5 C 87.8333,-0.5 176.167,-0.5 264.5,-0.5C 264.5,19.1667 264.5,38.8333 264.5,58.5C 176.167,58.5 87.8333,58.5 -0.5,58.5C -0.5,38.8333 -0.5,19.1667 -0.5,-0.5 Z"/></g>
<g><path style="opacity:1" fill="#191919" d="M 29.5,10.5 C 31.0174,10.5106 32.1841,11.1772 33,12.5C 40.8297,23.661 46.663,35.8277 50.5,49C 50.3865,50.2798 49.7199,51.1131 48.5,51.5C 42.4317,49.6995 36.4317,47.6995 30.5,45.5C 24.4207,47.3042 18.4207,49.3042 12.5,51.5C 11.914,51.2907 11.414,50.9574 11,50.5C 14.1764,35.8122 20.343,22.4789 29.5,10.5 Z"/></g>
<g><path style="opacity:1" fill="#f5f5f5" d="M 29.5,15.5 C 30.4959,15.4142 31.3292,15.7476 32,16.5C 38.1633,25.8275 42.9967,35.8275 46.5,46.5C 46.1667,46.8333 45.8333,47.1667 45.5,47.5C 41.2746,45.7578 36.9413,44.4245 32.5,43.5C 32.666,38.1563 32.4994,32.8229 32,27.5C 31,26.1667 30,26.1667 29,27.5C 28.5006,32.8229 28.334,38.1563 28.5,43.5C 23.933,44.0219 19.5997,45.3553 15.5,47.5C 15.1667,47.1667 14.8333,46.8333 14.5,46.5C 18.1838,35.4674 23.1838,25.134 29.5,15.5 Z"/></g>
<g><path style="opacity:1" fill="#0c060c" d="M 122.5,20.5 C 123.833,20.5 125.167,20.5 126.5,20.5C 126.334,25.1785 126.501,29.8452 127,34.5C 128.377,32.2462 129.877,30.0795 131.5,28C 133.167,27.3333 134.833,27.3333 136.5,28C 134.833,30.3333 133.167,32.6667 131.5,35C 133.5,37.6667 135.5,40.3333 137.5,43C 135.421,43.8077 133.421,43.641 131.5,42.5C 127.922,34.2396 126.255,34.573 126.5,43.5C 125.167,43.5 123.833,43.5 122.5,43.5C 122.5,35.8333 122.5,28.1667 122.5,20.5 Z"/></g>
<g><path style="opacity:1" fill="#1f0e1b" d="M 205.5,20.5 C 207.167,20.5 208.833,20.5 210.5,20.5C 210.5,28.1667 210.5,35.8333 210.5,43.5C 208.833,43.5 207.167,43.5 205.5,43.5C 205.5,35.8333 205.5,28.1667 205.5,20.5 Z"/></g>
<g><path style="opacity:1" fill="#140e16" d="M 64.5,21.5 C 68.9671,21.1326 73.3004,21.6326 77.5,23C 80.5388,26.805 79.8721,29.805 75.5,32C 81.5498,34.595 82.0498,38.095 77,42.5C 72.8886,43.404 68.722,43.7373 64.5,43.5C 64.5,36.1667 64.5,28.8333 64.5,21.5 Z"/></g>
<g><path style="opacity:1" fill="#0f0b17" d="M 140.5,21.5 C 142.924,21.1924 145.257,21.5258 147.5,22.5C 149.628,27.3848 151.462,32.3848 153,37.5C 155.017,32.2873 156.517,26.954 157.5,21.5C 159.833,21.5 162.167,21.5 164.5,21.5C 164.5,28.8333 164.5,36.1667 164.5,43.5C 163.167,43.5 161.833,43.5 160.5,43.5C 160.666,37.8236 160.499,32.1569 160,26.5C 158.333,31.5 156.667,36.5 155,41.5C 153.847,43.497 152.347,43.8304 150.5,42.5C 145.284,24.9442 143.284,25.2776 144.5,43.5C 143.167,43.5 141.833,43.5 140.5,43.5C 140.5,36.1667 140.5,28.8333 140.5,21.5 Z"/></g>
<g><path style="opacity:1" fill="#0b0812" d="M 187.5,21.5 C 190.85,21.335 194.183,21.5017 197.5,22C 199.329,22.2735 200.829,23.1068 202,24.5C 203.728,32.9442 200.228,36.9442 191.5,36.5C 191.5,38.8333 191.5,41.1667 191.5,43.5C 190.167,43.5 188.833,43.5 187.5,43.5C 187.5,36.1667 187.5,28.8333 187.5,21.5 Z"/></g>
<g><path style="opacity:1" fill="#fef6e8" d="M 69.5,25.5 C 71.1667,25.5 72.8333,25.5 74.5,25.5C 75.1667,29.5 73.5,31.1667 69.5,30.5C 69.5,28.8333 69.5,27.1667 69.5,25.5 Z"/></g>
<g><path style="opacity:1" fill="#eff1ea" d="M 191.5,25.5 C 197.158,24.6794 198.825,26.846 196.5,32C 194.866,32.4935 193.199,32.6602 191.5,32.5C 191.5,30.1667 191.5,27.8333 191.5,25.5 Z"/></g>
<g><path style="opacity:1" fill="#170e11" d="M 87.5,27.5 C 96.7113,26.5418 100.545,30.5418 99,39.5C 93.9244,44.756 88.9244,44.756 84,39.5C 83.3333,36.5 83.3333,33.5 84,30.5C 85.5185,29.8366 86.6851,28.8366 87.5,27.5 Z"/></g>
<g><path style="opacity:1" fill="#130f16" d="M 107.5,27.5 C 116.548,26.7124 120.048,30.7124 118,39.5C 112.431,45.1737 107.431,44.8404 103,38.5C 101.393,33.4383 102.893,29.7716 107.5,27.5 Z"/></g>
<g><path style="opacity:1" fill="#19141c" d="M 167.5,28.5 C 169.035,27.2121 170.701,27.2121 172.5,28.5C 174.163,31.6561 175.33,34.9894 176,38.5C 176.483,34.5524 177.65,30.8858 179.5,27.5C 180.833,27.5 182.167,27.5 183.5,27.5C 181.913,34.0128 179.746,40.3462 177,46.5C 175.106,49.8442 172.273,51.1776 168.5,50.5C 168.5,49.1667 168.5,47.8333 168.5,46.5C 171.59,47.17 173.257,46.0033 173.5,43C 172.145,37.8035 170.145,32.9702 167.5,28.5 Z"/></g>
<g><path style="opacity:1" fill="#1f171b" d="M 216.5,27.5 C 220.516,26.8999 224.016,27.8999 227,30.5C 227.499,34.8206 227.666,39.1539 227.5,43.5C 225.234,43.8588 223.401,43.1922 222,41.5C 219.333,44.1667 216.667,44.1667 214,41.5C 213.406,35.5858 216.24,32.5858 222.5,32.5C 220.166,30.0129 217.666,30.0129 215,32.5C 214.36,30.4567 214.86,28.7901 216.5,27.5 Z"/></g>
<g><path style="opacity:1" fill="#151014" d="M 235.5,27.5 C 237.527,27.3379 239.527,27.5045 241.5,28C 242.337,29.0113 242.67,30.1779 242.5,31.5C 235.842,30.3445 233.842,32.8445 236.5,39C 238.473,39.4955 240.473,39.6621 242.5,39.5C 242.763,42.7343 241.263,44.0676 238,43.5C 231.609,42.069 229.276,38.069 231,31.5C 232.397,29.9297 233.897,28.5964 235.5,27.5 Z"/></g>
<g><path style="opacity:1" fill="#0f0910" d="M 249.5,27.5 C 256.706,26.4118 260.039,29.4118 259.5,36.5C 256.5,36.5 253.5,36.5 250.5,36.5C 251.446,40.3354 253.779,41.3354 257.5,39.5C 257.833,40 258.167,40.5 258.5,41C 254.56,44.4406 250.726,44.2739 247,40.5C 244.458,35.4379 245.292,31.1046 249.5,27.5 Z"/></g>
<g><path style="opacity:1" fill="#e9edf1" d="M 88.5,31.5 C 90.5,31.5 92.5,31.5 94.5,31.5C 94.6633,33.8568 94.4966,36.1902 94,38.5C 87.6645,40.2209 85.8312,37.8876 88.5,31.5 Z"/></g>
<g><path style="opacity:1" fill="#f6eadf" d="M 108.5,31.5 C 114.235,30.8213 115.902,33.1546 113.5,38.5C 111.591,39.3482 109.591,39.6816 107.5,39.5C 107.279,36.7212 107.612,34.0545 108.5,31.5 Z"/></g>
<g><path style="opacity:1" fill="#f1f1e6" d="M 251.5,30.5 C 253.346,30.2222 254.68,30.8888 255.5,32.5C 253.833,33.8333 252.167,33.8333 250.5,32.5C 250.863,31.8165 251.196,31.1499 251.5,30.5 Z"/></g>
<g><path style="opacity:1" fill="#fef6ea" d="M 69.5,34.5 C 71.5,34.5 73.5,34.5 75.5,34.5C 75.938,38.9083 73.938,40.5749 69.5,39.5C 69.5,37.8333 69.5,36.1667 69.5,34.5 Z"/></g>
<g><path style="opacity:1" fill="#dbdede" d="M 217.5,36.5 C 219.167,36.5 220.833,36.5 222.5,36.5C 222.65,40.1612 221.15,41.1612 218,39.5C 217.517,38.552 217.351,37.552 217.5,36.5 Z"/></g>
</svg>
